<?xml version="1.0" encoding="utf-8"?>
<!-- Generator: Adobe Illustrator 16.0.4, SVG Export Plug-In . SVG Version: 6.00 Build 0)  -->
<!DOCTYPE svg PUBLIC "-//W3C//DTD SVG 1.1//EN" "http://www.w3.org/Graphics/SVG/1.1/DTD/svg11.dtd">
<svg version="1.1" id="Layer_1" xmlns="http://www.w3.org/2000/svg" xmlns:xlink="http://www.w3.org/1999/xlink" x="0px" y="0px"
	 width="570.002px" height="570.002px" viewBox="0 0 570.002 570.002" enable-background="new 0 0 570.002 570.002"
	 xml:space="preserve">
<g>
	<g>
		<path fill="#574C8D" d="M285.001,570.002c-76.126,0-147.696-29.646-201.526-83.476C29.645,432.697,0,361.127,0,285.001
			c0-76.126,29.645-147.697,83.475-201.526S208.875,0,285.001,0c76.127,0,147.696,29.645,201.526,83.475
			c53.829,53.83,83.475,125.4,83.475,201.526c0,76.126-29.646,147.696-83.475,201.525
			C432.697,540.356,361.127,570.002,285.001,570.002z M285.001,20c-70.784,0-137.332,27.565-187.384,77.617
			C47.565,147.669,20,214.217,20,285.001s27.565,137.331,77.617,187.384c50.052,50.052,116.6,77.617,187.384,77.617
			s137.332-27.565,187.384-77.617c50.053-50.053,77.617-116.6,77.617-187.384s-27.564-137.332-77.617-187.384
			C422.333,47.565,355.785,20,285.001,20z"/>
	</g>
	<g id="f_2_">
		<path fill="#574C8D" d="M304.869,429.255V300.417h43.246l6.476-50.211h-49.722v-32.058c0-14.537,4.037-24.443,24.884-24.443
			l26.588-0.013v-44.909c-4.6-0.611-20.382-1.978-38.743-1.978c-38.335,0-64.58,23.399-64.58,66.372v37.028h-43.356v50.211h43.356
			v128.838H304.869z"/>
	</g>
</g>
</svg>
