<?xml version="1.0" encoding="utf-8"?>
<!-- Generator: Adobe Illustrator 16.0.4, SVG Export Plug-In . SVG Version: 6.00 Build 0)  -->
<!DOCTYPE svg PUBLIC "-//W3C//DTD SVG 1.1//EN" "http://www.w3.org/Graphics/SVG/1.1/DTD/svg11.dtd">
<svg version="1.1" id="Layer_1" xmlns="http://www.w3.org/2000/svg" xmlns:xlink="http://www.w3.org/1999/xlink" x="0px" y="0px"
	 width="1440.816px" height="216.805px" viewBox="0 0 1440.816 216.805" enable-background="new 0 0 1440.816 216.805"
	 xml:space="preserve">
<g>
	<g>
		<g>
			<path fill="#004D9D" d="M163.899,85.706h18.772c5.365,0,9.669,1.623,12.414,4.367c2.122,2.12,3.366,5.177,3.366,8.609v0.124
				c0,7.236-4.984,11.473-11.846,12.725l13.404,17.832h-6.051l-12.656-16.961h-0.121h-12.355v16.961h-4.928V85.706z
				 M182.238,107.979c6.552,0,11.229-3.372,11.229-8.982v-0.127c0-5.36-4.118-8.608-11.168-8.608h-13.473v17.718H182.238z"/>
		</g>
		<g>
			<path fill="#004D9D" d="M215.871,85.706h4.928v43.658h-4.928V85.706z"/>
		</g>
		<g>
			<path fill="#004D9D" d="M236.943,123.008l3.055-3.621c4.551,4.119,8.922,6.178,14.967,6.178c5.864,0,9.731-3.121,9.731-7.426
				v-0.123c0-4.055-2.184-6.361-11.354-8.297c-10.039-2.177-14.657-5.427-14.657-12.595V97c0-6.86,6.054-11.914,14.349-11.914
				c6.365,0,10.919,1.809,15.343,5.365l-2.867,3.802c-4.058-3.303-8.109-4.737-12.597-4.737c-5.679,0-9.299,3.117-9.299,7.049v0.123
				c0,4.115,2.248,6.428,11.851,8.48c9.727,2.119,14.221,5.674,14.221,12.35v0.125c0,7.486-6.236,12.348-14.906,12.348
				C247.856,129.991,242.18,127.682,236.943,123.008z"/>
		</g>
		<g>
			<path fill="#004D9D" d="M286.475,85.706h15.153c13.723,0,23.205,9.421,23.205,21.709v0.127c0,12.279-9.482,21.822-23.205,21.822
				h-15.153V85.706z M301.628,124.811c11.043,0,18.092-7.484,18.092-17.149v-0.12c0-9.671-7.049-17.281-18.092-17.281h-10.225v34.55
				H301.628z"/>
		</g>
		<g>
			<path fill="#004D9D" d="M366.988,107.662v-0.12c0-12.355,9.23-22.579,22.075-22.579c7.923,0,12.66,2.804,17.023,6.921
				l-3.364,3.619c-3.676-3.492-7.796-5.987-13.719-5.987c-9.666,0-16.896,7.857-16.896,17.899v0.127
				c0,10.101,7.295,18.023,16.896,18.023c5.988,0,9.914-2.312,14.097-6.305l3.243,3.184c-4.554,4.613-9.544,7.67-17.462,7.67
				C376.283,130.114,366.988,120.194,366.988,107.662z"/>
		</g>
		<g>
			<path fill="#004D9D" d="M421.508,85.706h4.927v19.403h25.196V85.706h4.926v43.658h-4.926v-19.645h-25.196v19.645h-4.927V85.706z"
				/>
		</g>
		<g>
			<path fill="#004D9D" d="M475.895,85.706h18.773c5.362,0,9.663,1.623,12.408,4.367c2.12,2.12,3.37,5.177,3.37,8.609v0.124
				c0,7.236-4.989,11.473-11.848,12.725l13.402,17.832h-6.043l-12.662-16.961h-0.124h-12.351v16.961h-4.927V85.706z
				 M494.228,107.979c6.55,0,11.229-3.372,11.229-8.982v-0.127c0-5.36-4.119-8.608-11.167-8.608h-13.469v17.718H494.228z"/>
		</g>
		<g>
			<path fill="#004D9D" d="M527.862,85.706h4.931v43.658h-4.931V85.706z"/>
		</g>
		<g>
			<path fill="#004D9D" d="M548.934,123.008l3.058-3.621c4.55,4.119,8.916,6.178,14.967,6.178c5.864,0,9.731-3.121,9.731-7.426
				v-0.123c0-4.055-2.185-6.361-11.353-8.297c-10.038-2.177-14.658-5.427-14.658-12.595V97c0-6.86,6.051-11.914,14.348-11.914
				c6.357,0,10.91,1.809,15.338,5.365l-2.865,3.802c-4.056-3.303-8.11-4.737-12.602-4.737c-5.676,0-9.292,3.117-9.292,7.049v0.123
				c0,4.115,2.244,6.428,11.852,8.48c9.728,2.119,14.22,5.674,14.22,12.35v0.125c0,7.486-6.239,12.348-14.903,12.348
				C559.849,129.991,554.173,127.682,548.934,123.008z"/>
		</g>
		<g>
			<path fill="#004D9D" d="M609.603,90.261h-14.657v-4.555h34.303v4.555h-14.656v39.103h-4.989V90.261z"/>
		</g>
		<g>
			<path fill="#004D9D" d="M644.517,85.706h4.929v43.658h-4.929V85.706z"/>
		</g>
		<g>
			<path fill="#004D9D" d="M684.226,85.396h4.615l19.894,43.967h-5.298l-5.117-11.537h-23.757l-5.181,11.537h-5.05L684.226,85.396z
				 M696.388,113.401l-9.916-22.264l-9.978,22.264H696.388z"/>
		</g>
		<g>
			<path fill="#004D9D" d="M723.561,85.706h4.613l27.504,34.992V85.706h4.799v43.658h-3.924l-28.188-35.792v35.792h-4.805V85.706z"
				/>
		</g>
		<g>
			<path fill="#004D9D" d="M806.5,85.706h31.375v4.555h-26.449v15.592h23.641v4.492h-23.641v19.02H806.5V85.706z"/>
		</g>
		<g>
			<path fill="#004D9D" d="M853.09,85.706h31.555v4.492h-26.629v14.911h23.818v4.485h-23.818v15.281h26.941v4.488H853.09V85.706z"/>
		</g>
		<g>
			<path fill="#004D9D" d="M900.729,85.706h4.93v39.105h24.574v4.553h-29.504V85.706z"/>
		</g>
		<g>
			<path fill="#004D9D" d="M945.246,85.706h4.922v39.105h24.576v4.553h-29.498V85.706z"/>
		</g>
		<g>
			<path fill="#004D9D" d="M985.375,107.662v-0.12c0-12.039,9.035-22.579,22.32-22.579c13.291,0,22.203,10.414,22.203,22.452
				c0.061,0.063,0.061,0.063,0,0.127c0,12.037-9.047,22.572-22.328,22.572C994.285,130.114,985.375,119.7,985.375,107.662z
				 M1024.783,107.662v-0.12c0-9.921-7.234-18.026-17.213-18.026c-9.984,0-17.09,7.984-17.09,17.899v0.127
				c0,9.912,7.232,18.023,17.215,18.023C1017.67,125.565,1024.783,117.581,1024.783,107.662z"/>
		</g>
		<g>
			<path fill="#004D9D" d="M1041.201,85.706h5.363l12.475,36.367l11.977-36.49h4.055l11.975,36.49l12.475-36.367h5.176l-15.6,43.972
				h-4.178l-11.973-35.425l-12.035,35.425h-4.115L1041.201,85.706z"/>
		</g>
		<g>
			<path fill="#004D9D" d="M1115.91,123.008l3.051-3.621c4.553,4.119,8.924,6.178,14.975,6.178c5.855,0,9.727-3.121,9.727-7.426
				v-0.123c0-4.055-2.186-6.361-11.35-8.297c-10.041-2.177-14.662-5.427-14.662-12.595V97c0-6.86,6.049-11.914,14.346-11.914
				c6.365,0,10.918,1.809,15.342,5.365l-2.867,3.802c-4.057-3.303-8.109-4.737-12.592-4.737c-5.684,0-9.303,3.117-9.303,7.049v0.123
				c0,4.115,2.254,6.428,11.852,8.48c9.73,2.119,14.221,5.674,14.221,12.35v0.125c0,7.486-6.236,12.348-14.908,12.348
				C1126.82,129.991,1121.148,127.682,1115.91,123.008z"/>
		</g>
		<g>
			<path fill="#004D9D" d="M1165.445,85.706h4.926v19.403h25.197V85.706h4.926v43.658h-4.926v-19.645h-25.197v19.645h-4.926V85.706z
				"/>
		</g>
		<g>
			<path fill="#004D9D" d="M1220.023,85.706h4.92v43.658h-4.92V85.706z"/>
		</g>
		<g>
			<path fill="#004D9D" d="M1244.371,85.706h16.34c9.854,0,16.346,5.244,16.346,13.853v0.122c0,9.417-7.861,14.281-17.156,14.281
				h-10.6v15.402h-4.93V85.706z M1260.082,109.473c7.24,0,11.98-3.869,11.98-9.605v-0.129c0-6.23-4.674-9.479-11.727-9.479h-11.035
				v19.212H1260.082z"/>
		</g>
	</g>
	<g>
		<g>
			<path fill="none" stroke="#004D9D" stroke-width="5" stroke-miterlimit="10" d="M1427.783,196.434
				c4.938,9.829-0.021,17.871-11.021,17.871H24.193c-11,0-15.722-7.918-10.493-17.596L51.906,126c5.229-9.678,5.229-25.514,0-35.192
				L13.7,20.096C8.471,10.418,13.193,2.5,24.193,2.5h1392.569c11,0,15.96,8.042,11.021,17.871l-35.25,70.161
				c-4.938,9.829-4.938,25.914,0,35.743L1427.783,196.434z"/>
		</g>
	</g>
</g>
</svg>
