<?xml version="1.0" encoding="utf-8"?>
<!-- Generator: Adobe Illustrator 16.0.4, SVG Export Plug-In . SVG Version: 6.00 Build 0)  -->
<!DOCTYPE svg PUBLIC "-//W3C//DTD SVG 1.1//EN" "http://www.w3.org/Graphics/SVG/1.1/DTD/svg11.dtd">
<svg version="1.1" id="Layer_1" xmlns="http://www.w3.org/2000/svg" xmlns:xlink="http://www.w3.org/1999/xlink" x="0px" y="0px"
	 width="560px" height="50px" viewBox="0 0 560 50" enable-background="new 0 0 560 50" xml:space="preserve">
<g>
	<g>
		<g>
			<path fill="#574C8D" d="M33.355,14.979h8.289c2.369,0,4.27,0.717,5.48,1.928c0.938,0.936,1.486,2.286,1.486,3.802v0.055
				c0,3.195-2.201,5.066-5.23,5.619l5.92,7.874h-2.672l-5.59-7.49h-0.053h-5.455v7.49h-2.176V14.979z M41.453,24.813
				c2.893,0,4.957-1.489,4.957-3.966v-0.056c0-2.367-1.817-3.801-4.931-3.801h-5.948v7.824H41.453z"/>
		</g>
		<g>
			<path fill="#574C8D" d="M56.303,14.979h2.177v19.278h-2.177V14.979z"/>
		</g>
		<g>
			<path fill="#574C8D" d="M65.607,31.45l1.35-1.599c2.01,1.818,3.939,2.728,6.609,2.728c2.589,0,4.297-1.378,4.297-3.279v-0.054
				c0-1.791-0.965-2.809-5.014-3.664c-4.434-0.961-6.473-2.396-6.473-5.562v-0.055c0-3.029,2.674-5.261,6.336-5.261
				c2.811,0,4.82,0.799,6.774,2.369l-1.267,1.679c-1.791-1.458-3.58-2.092-5.561-2.092c-2.508,0-4.107,1.376-4.107,3.112v0.054
				c0,1.817,0.993,2.838,5.233,3.745c4.294,0.936,6.278,2.505,6.278,5.453v0.055c0,3.305-2.753,5.452-6.581,5.452
				C70.427,34.533,67.92,33.513,65.607,31.45z"/>
		</g>
		<g>
			<path fill="#574C8D" d="M87.479,14.979h6.69c6.061,0,10.247,4.16,10.247,9.586v0.056c0,5.422-4.187,9.636-10.247,9.636h-6.69
				V14.979z M94.17,32.246c4.877,0,7.989-3.305,7.989-7.572V24.62c0-4.27-3.112-7.631-7.989-7.631h-4.514v15.256H94.17z"/>
		</g>
		<g>
			<path fill="#574C8D" d="M123.031,24.673V24.62c0-5.456,4.075-9.97,9.747-9.97c3.498,0,5.591,1.238,7.517,3.056l-1.485,1.598
				c-1.624-1.542-3.442-2.644-6.058-2.644c-4.268,0-7.461,3.469-7.461,7.904v0.056c0,4.46,3.221,7.958,7.461,7.958
				c2.645,0,4.377-1.021,6.225-2.784l1.432,1.406c-2.01,2.037-4.214,3.386-7.711,3.386
				C127.135,34.587,123.031,30.207,123.031,24.673z"/>
		</g>
		<g>
			<path fill="#574C8D" d="M147.105,14.979h2.174v8.567h11.127v-8.567h2.174v19.278h-2.174v-8.675h-11.127v8.675h-2.174V14.979z"/>
		</g>
		<g>
			<path fill="#574C8D" d="M171.119,14.979h8.29c2.368,0,4.267,0.717,5.479,1.928c0.936,0.936,1.488,2.286,1.488,3.802v0.055
				c0,3.195-2.203,5.066-5.232,5.619l5.918,7.874h-2.668l-5.592-7.49h-0.055h-5.453v7.49h-2.176V14.979z M179.215,24.813
				c2.893,0,4.959-1.489,4.959-3.966v-0.056c0-2.367-1.819-3.801-4.932-3.801h-5.947v7.824H179.215z"/>
		</g>
		<g>
			<path fill="#574C8D" d="M194.066,14.979h2.177v19.278h-2.177V14.979z"/>
		</g>
		<g>
			<path fill="#574C8D" d="M203.371,31.45l1.35-1.599c2.01,1.818,3.938,2.728,6.609,2.728c2.589,0,4.297-1.378,4.297-3.279v-0.054
				c0-1.791-0.965-2.809-5.014-3.664c-4.432-0.961-6.473-2.396-6.473-5.562v-0.055c0-3.029,2.672-5.261,6.336-5.261
				c2.807,0,4.817,0.799,6.772,2.369l-1.265,1.679c-1.791-1.458-3.582-2.092-5.564-2.092c-2.506,0-4.104,1.376-4.104,3.112v0.054
				c0,1.817,0.991,2.838,5.233,3.745c4.296,0.936,6.278,2.505,6.278,5.453v0.055c0,3.305-2.754,5.452-6.58,5.452
				C208.19,34.533,205.684,33.513,203.371,31.45z"/>
		</g>
		<g>
			<path fill="#574C8D" d="M230.16,16.989h-6.473v-2.011h15.146v2.011h-6.471v17.267h-2.203V16.989z"/>
		</g>
		<g>
			<path fill="#574C8D" d="M245.576,14.979h2.176v19.278h-2.176V14.979z"/>
		</g>
		<g>
			<path fill="#574C8D" d="M263.11,14.842h2.038l8.783,19.415h-2.339l-2.259-5.094h-10.49l-2.288,5.094h-2.229L263.11,14.842z
				 M268.48,27.208l-4.379-9.831l-4.405,9.831H268.48z"/>
		</g>
		<g>
			<path fill="#574C8D" d="M280.479,14.979h2.037L294.66,30.43V14.979h2.119v19.278h-1.732l-12.446-15.805v15.805h-2.122V14.979z"/>
		</g>
		<g>
			<path fill="#574C8D" d="M317.102,14.979h13.854v2.011h-11.679v6.885h10.438v1.983h-10.438v8.398h-2.175V14.979z"/>
		</g>
		<g>
			<path fill="#574C8D" d="M337.674,14.979h13.933v1.983h-11.758v6.584h10.518v1.981h-10.518v6.747h11.896v1.982h-14.071V14.979z"/>
		</g>
		<g>
			<path fill="#574C8D" d="M358.709,14.979h2.177v17.267h10.851v2.011h-13.027V14.979z"/>
		</g>
		<g>
			<path fill="#574C8D" d="M378.366,14.979h2.173v17.267h10.853v2.011h-13.025V14.979z"/>
		</g>
		<g>
			<path fill="#574C8D" d="M396.085,24.673V24.62c0-5.316,3.99-9.97,9.856-9.97c5.868,0,9.804,4.598,9.804,9.914
				c0.026,0.028,0.026,0.028,0,0.056c0,5.315-3.995,9.967-9.859,9.967C400.02,34.587,396.085,29.989,396.085,24.673z
				 M413.486,24.673V24.62c0-4.38-3.194-7.959-7.601-7.959c-4.408,0-7.546,3.525-7.546,7.904v0.056c0,4.377,3.193,7.958,7.602,7.958
				C410.346,32.579,413.486,29.053,413.486,24.673z"/>
		</g>
		<g>
			<path fill="#574C8D" d="M420.736,14.979h2.368l5.508,16.058l5.288-16.112h1.791l5.287,16.112l5.509-16.058h2.285l-6.889,19.416
				h-1.845l-5.286-15.642l-5.314,15.642h-1.817L420.736,14.979z"/>
		</g>
		<g>
			<path fill="#574C8D" d="M453.725,31.45l1.347-1.599c2.011,1.818,3.94,2.728,6.612,2.728c2.586,0,4.295-1.378,4.295-3.279v-0.054
				c0-1.791-0.965-2.809-5.012-3.664c-4.434-0.961-6.474-2.396-6.474-5.562v-0.055c0-3.029,2.671-5.261,6.334-5.261
				c2.811,0,4.821,0.799,6.774,2.369l-1.266,1.679c-1.792-1.458-3.581-2.092-5.561-2.092c-2.51,0-4.107,1.376-4.107,3.112v0.054
				c0,1.817,0.995,2.838,5.233,3.745c4.296,0.936,6.279,2.505,6.279,5.453v0.055c0,3.305-2.754,5.452-6.583,5.452
				C458.542,34.533,456.037,33.513,453.725,31.45z"/>
		</g>
		<g>
			<path fill="#574C8D" d="M475.597,14.979h2.176v8.567h11.126v-8.567h2.175v19.278h-2.175v-8.675h-11.126v8.675h-2.176V14.979z"/>
		</g>
		<g>
			<path fill="#574C8D" d="M499.696,14.979h2.173v19.278h-2.173V14.979z"/>
		</g>
		<g>
			<path fill="#574C8D" d="M510.447,14.979h7.215c4.352,0,7.218,2.315,7.218,6.117v0.054c0,4.158-3.471,6.306-7.575,6.306h-4.681
				v6.801h-2.177V14.979z M517.385,25.473c3.197,0,5.29-1.708,5.29-4.241v-0.057c0-2.751-2.063-4.186-5.178-4.186h-4.873v8.484
				H517.385z"/>
		</g>
	</g>
	<g>
		<path fill="#574C8D" d="M560,49.964H0L13.488,25L0,0.036h560L547.457,25L560,49.964z M3.061,48.142h553.981L545.417,25
			l11.625-23.141H3.061L15.561,25L3.061,48.142z"/>
	</g>
</g>
<g>
</g>
<g>
</g>
<g>
</g>
<g>
</g>
<g>
</g>
<g>
</g>
<g>
</g>
<g>
</g>
<g>
</g>
<g>
</g>
<g>
</g>
<g>
</g>
<g>
</g>
<g>
</g>
<g>
</g>
</svg>
