<?xml version="1.0" encoding="utf-8"?>
<!-- Generator: Adobe Illustrator 16.0.4, SVG Export Plug-In . SVG Version: 6.00 Build 0)  -->
<!DOCTYPE svg PUBLIC "-//W3C//DTD SVG 1.1//EN" "http://www.w3.org/Graphics/SVG/1.1/DTD/svg11.dtd">
<svg version="1.1" id="Layer_1" xmlns="http://www.w3.org/2000/svg" xmlns:xlink="http://www.w3.org/1999/xlink" x="0px" y="0px"
	 width="570.002px" height="570.002px" viewBox="0 0 570.002 570.002" enable-background="new 0 0 570.002 570.002"
	 xml:space="preserve">
<g>
	<g>
		<path fill="#574C8D" d="M427.726,206.242c-10.059,4.461-20.867,7.477-32.215,8.832c11.582-6.941,20.475-17.934,24.662-31.031
			c-10.836,6.428-22.84,11.096-35.617,13.611c-10.23-10.9-24.809-17.713-40.939-17.713c-30.979,0-56.092,25.113-56.092,56.088
			c0,4.396,0.496,8.678,1.453,12.783c-46.615-2.34-87.944-24.67-115.608-58.604c-4.828,8.283-7.594,17.918-7.594,28.197
			c0,19.459,9.902,36.627,24.951,46.686c-9.193-0.291-17.842-2.814-25.404-7.016c-0.004,0.234-0.006,0.469-0.006,0.705
			c0,27.177,19.334,49.847,44.994,54.999c-4.707,1.281-9.662,1.967-14.777,1.967c-3.615,0-7.129-0.352-10.553-1.006
			c7.137,22.283,27.852,38.5,52.396,38.953c-19.196,15.043-43.382,24.01-69.659,24.01c-4.527,0-8.992-0.266-13.381-0.783
			c24.822,15.914,54.305,25.199,85.979,25.199c103.17,0,159.586-85.467,159.586-159.587c0-2.432-0.055-4.85-0.162-7.256
			C410.696,227.369,420.206,217.49,427.726,206.242z"/>
	</g>
	<g>
		<path fill="#574C8D" d="M285.001,570.002c-76.126,0-147.696-29.646-201.526-83.476C29.645,432.697,0,361.127,0,285.001
			c0-76.126,29.645-147.697,83.475-201.526S208.875,0,285.001,0c76.127,0,147.696,29.645,201.526,83.475
			c53.829,53.83,83.475,125.4,83.475,201.526c0,76.126-29.646,147.696-83.475,201.525
			C432.697,540.356,361.127,570.002,285.001,570.002z M285.001,20c-70.784,0-137.332,27.565-187.384,77.617
			C47.565,147.669,20,214.217,20,285.001s27.565,137.331,77.617,187.384c50.052,50.052,116.6,77.617,187.384,77.617
			s137.332-27.565,187.384-77.617c50.053-50.053,77.617-116.6,77.617-187.384s-27.564-137.332-77.617-187.384
			C422.333,47.565,355.785,20,285.001,20z"/>
	</g>
</g>
</svg>
